# xmcd
#
# Track frame offsets: 
#        150
#        17712
#        35088
#        56984
#        76618
#        92674
#        107299
#        125030
#        145320
#        168248
#        185855
#        200175
#
# Disc length: 3002 seconds
#
# Revision: 2
# Processed by: cddbd v1.5.2PL0 Copyright (c) Steve Scherf et al.
# Submitted via: ExactAudioCopy v1.1
#
DISCID=a90bb80c
DTITLE=Pete Molinari - A Train Bound For Glory
DYEAR=2010
DGENRE=country
TTITLE0=Streetcar Named Desire
TTITLE1=A Place I Know So Well
TTITLE2=(To Be Close To) Your Heart's Desire
TTITLE3=Willow Weep For Me
TTITLE4=Little Less Loneliness
TTITLE5=Minus Me
TTITLE6=New York City
TTITLE7=A Train Bound For Glory
TTITLE8=For Eliza
TTITLE9=Since You've Been Gone
TTITLE10=Heartbreak Avenue
TTITLE11=What a Day, What a Night, What a Girl
EXTD=
EXTT0=
EXTT1=
EXTT2=
EXTT3=
EXTT4=
EXTT5=
EXTT6=
EXTT7=
EXTT8=
EXTT9=
EXTT10=
EXTT11=
PLAYORDER=
